<svg xmlns="http://www.w3.org/2000/svg" xmlns:xlink="http://www.w3.org/1999/xlink" width="15" height="15" viewBox="0 0 15 15">
  <defs>
    <clipPath id="clip-path">
      <rect id="Rectangle_694" data-name="Rectangle 694" width="15" height="15" fill="#803628"/>
    </clipPath>
  </defs>
  <g id="Group_77" data-name="Group 77" clip-path="url(#clip-path)">
    <path id="Path_209" data-name="Path 209" d="M1.229,1.639H2.458V.41a.41.41,0,1,1,.819,0V1.639H11.47V.41a.41.41,0,0,1,.819,0V1.639h1.229a1.23,1.23,0,0,1,1.229,1.229V13.519a1.23,1.23,0,0,1-1.229,1.229H1.229A1.23,1.23,0,0,1,0,13.519V2.868A1.23,1.23,0,0,1,1.229,1.639m-.41,11.88a.41.41,0,0,0,.41.41h12.29a.41.41,0,0,0,.41-.41V8.894H8.363l1.975,1.976a.41.41,0,0,1-.579.579L7.084,8.775a.41.41,0,0,1,0-.579L9.759,5.521a.41.41,0,1,1,.579.579L8.363,8.075h5.566V2.868a.41.41,0,0,0-.41-.41H12.29V3.687a.41.41,0,1,1-.819,0V2.458H3.277V3.687a.41.41,0,1,1-.819,0V2.458H1.229a.41.41,0,0,0-.41.41Z" transform="translate(0.252 0.252)" fill="#803628"/>
  </g>
</svg>
