<svg xmlns="http://www.w3.org/2000/svg" xmlns:xlink="http://www.w3.org/1999/xlink" width="15" height="15" viewBox="0 0 15 15">
  <defs>
    <clipPath id="clip-path">
      <rect id="Rectangle_694" data-name="Rectangle 694" width="15" height="15" fill="#803628"/>
    </clipPath>
  </defs>
  <g id="Group_77" data-name="Group 77" clip-path="url(#clip-path)">
    <path id="Path_209" data-name="Path 209" d="M13.519,1.639H12.29V.41a.41.41,0,1,0-.819,0V1.639H3.277V.41a.41.41,0,0,0-.819,0V1.639H1.229A1.23,1.23,0,0,0,0,2.868V13.519a1.23,1.23,0,0,0,1.229,1.229h12.29a1.23,1.23,0,0,0,1.229-1.229V2.868a1.23,1.23,0,0,0-1.229-1.229m.41,11.88a.41.41,0,0,1-.41.41H1.229a.41.41,0,0,1-.41-.41V8.894H6.385L4.41,10.871a.41.41,0,0,0,.579.579L7.664,8.775a.41.41,0,0,0,0-.579L4.989,5.521A.41.41,0,0,0,4.41,6.1L6.385,8.075H.819V2.868a.41.41,0,0,1,.41-.41H2.458V3.687a.41.41,0,1,0,.819,0V2.458H11.47V3.687a.41.41,0,1,0,.819,0V2.458h1.229a.41.41,0,0,1,.41.41Z" transform="translate(0 0.252)" fill="#803628"/>
  </g>
</svg>
